Coordinates
version=1
nRows=9
nColumns=36
inDegrees=yes

Units are S.I. units (second, meters, Newtons, ...)
If the header above contains a line with 'inDegrees', this indicates whether rotational values are in degrees (yes) or radians (no).

endheader
time	pelvis_tilt	pelvis_list	pelvis_rotation	pelvis_tx	pelvis_ty	pelvis_tz	hip_flexion_r	hip_adduction_r	hip_rotation_r	knee_angle_r	knee_angle_r_beta	ankle_angle_r	subtalar_angle_r	mtp_angle_r	hip_flexion_l	hip_adduction_l	hip_rotation_l	knee_angle_l	knee_angle_l_beta	ankle_angle_l	subtalar_angle_l	mtp_angle_l	lumbar_extension	lumbar_bending	lumbar_rotation	arm_flex_r	arm_add_r	arm_rot_r	elbow_flex_r	pro_sup_r	arm_flex_l	arm_add_l	arm_rot_l	elbow_flex_l	pro_sup_l
      1.50000000	    -15.10776667	      2.29437947	     -2.93582375	      0.01107351	      1.04250432	      0.16601391	     17.12677733	      6.39366679	      1.81488554	     10.04886562	      0.17538579	      8.92926039	    -14.63191417	     -7.49999987	     12.35177517	     -6.97434679	      2.95605513	     25.35917489	      0.44260110	     -1.74282325	     -9.21476447	     -7.49999987	     -1.35436507	      9.70495885	     -4.57865385	     51.88823182	      8.85647374	     62.28613674	    127.03798093	     89.52169745	     34.60065771	     21.13812093	     63.11258074	    121.19553162	     91.18949056
      1.51666670	    -14.34594130	      1.59981355	     -3.25949908	      0.00602943	      1.03968858	      0.16537524	     16.51097844	      7.20136587	      1.71143906	     10.23631326	      0.17865737	      9.00692203	    -14.64500610	     -7.49999987	     12.23529223	     -7.93033133	      3.03523941	     27.97904891	      0.48832653	     -3.18004772	     -9.65568036	     -7.49999987	     -1.77041705	     10.45936093	     -4.40277666	     51.75247050	      8.70791617	     62.27900641	    126.99386395	     89.52381266	     34.42844930	     21.34101390	     62.85280227	    121.19721008	     91.29396250
      1.53333330	    -13.50833547	      0.94570650	     -3.31183250	      0.00234715	      1.03881115	      0.16630922	     15.84220320	      7.88047739	      1.40506684	     10.35585708	      0.18074380	      8.83154305	    -14.97146911	     -7.49999987	     12.22263775	     -8.78971022	      3.05990231	     30.54008579	      0.53302505	     -7.49237134	    -11.33278446	     -7.49999987	     -2.19517468	     11.10317048	     -4.16792138	     51.50610798	      8.33034910	     61.99130122	    127.11011232	     87.60237813	     34.40892500	     21.45701584	     62.39557346	    121.10330252	     89.57676513
      1.55000000	    -12.99385193	      0.50244130	     -3.39298811	      0.00029141	      1.03902437	      0.16721844	     15.40992014	      8.38347313	      1.28124426	     10.45815383	      0.18252922	      8.42529969	    -15.43253336	     -7.49999987	     12.47365439	     -9.40873610	      2.64834381	     32.53266253	      0.56780208	    -12.26641131	    -12.87399660	     -7.49999987	     -2.34285850	     11.44375711	     -4.02391133	     51.18683723	      8.13873366	     61.84702776	    126.95986045	     86.52462782	     34.26532903	     21.57872779	     62.43989250	    120.86588082	     88.72393640
      1.56666670	    -12.61970805	      0.35352101	     -3.28009430	     -0.00397509	      1.04142469	      0.16898456	     15.13510937	      8.57546777	      0.87674663	     10.58358136	      0.18471834	      8.17131586	    -15.57954913	     -7.49999987	     13.18768545	     -9.67728626	      2.24632545	     34.43047136	      0.60092509	    -19.32144224	    -14.77368933	     -7.49999987	     -2.62910266	     11.30815238	     -4.10345384	     50.46045752	      8.02102086	     61.74825350	    127.17139131	     85.62755160	     34.42173924	     21.08267198	     62.01070316	    120.73082968	     88.05187993
      1.58333330	    -12.24187619	      0.26025785	     -3.12063141	     -0.00624837	      1.04008351	      0.17128956	     15.07741971	      8.77596321	      0.90045957	     10.88370013	      0.18995640	      8.44377098	    -15.99361499	     -7.49999987	     14.04895849	     -9.96374985	      1.74490990	     36.65405041	      0.63973386	    -27.61147950	    -16.45774994	     -7.49999987	     -2.71322569	     11.07181101	     -3.90301618	     49.66737839	      7.87987223	     61.18292169	    127.20725543	     85.28724054	     34.50646240	     20.76045506	     61.87646279	    120.44754251	     87.73715496
      1.60000000	    -12.07859516	     -0.06008580	     -2.55485173	     -0.00897429	      1.04154581	      0.17122084	     15.19841834	      9.03615767	      0.20985001	     11.25477314	      0.19643285	      8.35951566	    -16.32558779	     -7.49999987	     14.26439314	    -10.36009408	      1.65960732	     38.21994494	      0.66706388	    -39.49682753	    -17.16693347	     -7.49999987	     -2.41506061	     10.96093756	     -4.08133702	     49.07133297	      7.62631103	     60.79190055	    127.59632446	     84.16302505	     34.59682093	     20.55258663	     62.04399717	    120.17095770	     86.51126721
      1.61666670	    -12.54035675	     -1.21241488	     -1.72524452	     -0.01337852	      1.03761127	      0.17034979	     16.15340830	     10.11760449	     -0.59318309	     11.55943520	      0.20175020	      8.79284082	    -16.98921455	     -7.49999987	     13.76580885	    -11.93292217	      1.35816154	     38.76574089	      0.67658982	    -49.30466858	    -14.37038089	     -7.49999987	     -1.34552934	     11.70198183	     -4.62336764	     48.86956007	      7.35790658	     59.81139897	    128.07879417	     87.10486448	     34.81413812	     20.92761622	     61.97400525	    119.57461008	     88.64081390
      1.63333330	    -14.14771061	     -4.58105802	      0.55018336	     -0.01408698	      1.03014826	      0.17003454	     18.51337198	     12.92370572	     -2.76525318	     11.51857394	      0.20103704	      7.61734490	    -20.34957334	     -7.49999987	     12.93776045	    -16.33292642	      1.70521606	     38.07858830	      0.66459674	    -49.90655556	     -2.98731556	     -7.49999987	      1.76708653	     14.02983964	     -6.92299309	     48.28180963	      6.73491657	     58.61967727	    129.62827657	     85.34600239	     34.65688234	     21.88990065	     62.23371843	    118.18938856	     86.65111425
